<svg width="19" height="20" viewBox="0 0 19 20" fill="none" xmlns="http://www.w3.org/2000/svg">
<path d="M6.52318 7.52397C6.98185 7.06853 6.98286 6.32691 6.52536 5.87029L2.1344 1.48781C1.6798 1.03409 0.943564 1.03444 0.489401 1.48861C0.0349275 1.94308 0.0349276 2.67993 0.489401 3.1344L4.87612 7.52112C5.3306 7.9756 6.0671 7.97684 6.52318 7.52397ZM14.2968 0.666504C13.4184 0.666504 12.9785 1.7285 13.5996 2.34961C13.9845 2.73454 13.9847 3.35859 13.5999 3.74367L0.488676 16.8653C0.0345502 17.3198 0.0346966 18.0564 0.489004 18.5107C0.943311 18.965 1.67984 18.9651 2.13433 18.511L15.256 5.39978C15.6411 5.01501 16.2651 5.01513 16.6501 5.40006C17.2712 6.02117 18.3332 5.58127 18.3332 4.70289V1.83317C18.3332 1.18884 17.8108 0.666504 17.1665 0.666504H14.2968ZM13.124 12.4673C12.6698 12.0131 11.9333 12.0131 11.479 12.4673C11.0247 12.9216 11.0247 13.6581 11.479 14.1123L13.6077 16.241C13.9945 16.6279 13.9945 17.2551 13.6077 17.642C12.9836 18.2661 13.4256 19.3332 14.3082 19.3332H17.1665C17.8108 19.3332 18.3332 18.8108 18.3332 18.1665V15.2965C18.3332 14.4182 17.2713 13.9784 16.6503 14.5994C16.2653 14.9844 15.6411 14.9844 15.2561 14.5994L13.124 12.4673Z" fill="#9D9EA1"/>
</svg>
