<svg width="22" height="22" viewBox="0 0 22 22" fill="none" xmlns="http://www.w3.org/2000/svg">
<path d="M5.16667 6.33301C5.16667 5.68868 5.689 5.16634 6.33333 5.16634H15.8082C16.3744 5.16634 16.8333 5.62531 16.8333 6.19147C16.8333 7.10476 17.9375 7.56213 18.5833 6.91634L20.675 4.82463C21.1307 4.36902 21.1307 3.63033 20.675 3.17472L18.5833 1.08301C17.9375 0.437213 16.8333 0.894592 16.8333 1.80788C16.8333 2.37404 16.3744 2.83301 15.8082 2.83301H4C3.35567 2.83301 2.83333 3.35534 2.83333 3.99967V8.66634C2.83333 9.31067 3.35567 9.83301 4 9.83301C4.64433 9.83301 5.16667 9.31067 5.16667 8.66634V6.33301ZM16.8333 15.6663C16.8333 16.3107 16.311 16.833 15.6667 16.833H6.19179C5.62563 16.833 5.16667 16.374 5.16667 15.8079C5.16667 14.8946 4.06246 14.4372 3.41667 15.083L1.32496 17.1747C0.869345 17.6303 0.869346 18.369 1.32496 18.8246L3.41667 20.9163C4.06246 21.5621 5.16667 21.1048 5.16667 20.1915C5.16667 19.6253 5.62563 19.1663 6.19179 19.1663H18C18.6443 19.1663 19.1667 18.644 19.1667 17.9997V13.333C19.1667 12.6887 18.6443 12.1663 18 12.1663C17.3557 12.1663 16.8333 12.6887 16.8333 13.333V15.6663Z" fill="#9D9EA1"/>
</svg>
