<svg width="12" height="14" viewBox="0 0 12 14" fill="none" xmlns="http://www.w3.org/2000/svg">
<path d="M0.000488281 13C0.000488281 13.5523 0.448204 14 1.00049 14H3.00049C3.55277 14 4.00049 13.5523 4.00049 13V1C4.00049 0.447716 3.55277 0 3.00049 0H1.00049C0.448204 0 0.000488281 0.447715 0.000488281 1V13ZM9.00049 0C8.4482 0 8.00049 0.447715 8.00049 1V13C8.00049 13.5523 8.4482 14 9.00049 14H11.0005C11.5528 14 12.0005 13.5523 12.0005 13V1C12.0005 0.447716 11.5528 0 11.0005 0H9.00049Z" fill="white"/>
</svg>
