<svg width="18" height="18" viewBox="0 0 18 18" fill="none" xmlns="http://www.w3.org/2000/svg">
<path d="M12.3716 3.45056C12.3212 2.96422 12.2687 2.45963 12.1396 1.95611C11.7879 0.75153 10.8136 9.59513e-06 9.76905 9.59513e-06C9.1864 -0.00213761 8.44942 0.356445 8.03159 0.719322L4.56822 3.61697H2.75517C1.42084 3.61697 0.347918 4.6444 0.145301 6.12705C-0.02687 7.55064 -0.0688631 10.2379 0.145301 11.8042C0.33112 13.3706 1.35575 14.383 2.75517 14.383H4.56822L8.09878 17.3236C8.46097 17.6382 9.10031 17.9989 9.68822 17.9989C9.72601 18 9.7596 18 9.7932 18C10.8577 18 11.7952 17.2206 12.1469 16.0192C12.2802 15.5082 12.3264 15.0293 12.3716 14.5666L12.4188 14.1082C12.5994 12.6213 12.5994 5.36908 12.4188 3.89288L12.3716 3.45056Z" fill="#C1C2C4"/>
<path opacity="0.4" d="M16.4263 3.49442C16.1397 3.07035 15.5665 2.96514 15.1476 3.25823C14.7319 3.55455 14.629 4.14073 14.9177 4.56588C15.7208 5.74898 16.1628 7.32288 16.1628 8.99985C16.1628 10.6757 15.7208 12.2507 14.9177 13.4338C14.629 13.859 14.7319 14.4451 15.1476 14.7415C15.302 14.851 15.4836 14.9089 15.6715 14.9089C15.9728 14.9089 16.2542 14.7576 16.4263 14.5053C17.4405 13.0119 18 11.0569 18 8.99985C18 6.94283 17.4405 4.9878 16.4263 3.49442Z" fill="#C1C2C4"/>
</svg>
